<svg width="18" height="18" viewBox="0 0 18 18" fill="none" xmlns="http://www.w3.org/2000/svg">
<rect width="18" height="18" rx="9" fill="white" fill-opacity="0.1"/>
<mask id="mask0_88_3848" style="mask-type:alpha" maskUnits="userSpaceOnUse" x="4" y="4" width="10" height="10">
<rect x="4" y="4.5" width="10" height="9" fill="#D9D9D9"/>
</mask>
<g mask="url(#mask0_88_3848)">
<path d="M8.54354 10.5146C9.00861 10.5146 9.40323 10.3564 9.72742 10.0402C10.0516 9.72388 10.2137 9.33984 10.2137 8.88803C10.2137 8.43622 10.0509 8.05285 9.72536 7.73791C9.3998 7.42297 9.00449 7.2655 8.53942 7.2655C8.07435 7.2655 7.67972 7.42364 7.35553 7.73991C7.03135 8.05618 6.86926 8.44022 6.86926 8.89203C6.86926 9.34384 7.03204 9.72721 7.35759 10.0422C7.68315 10.3571 8.07846 10.5146 8.54354 10.5146ZM8.54148 10.0905C8.19822 10.0905 7.90646 9.97379 7.66618 9.74037C7.4259 9.50694 7.30576 9.2235 7.30576 8.89003C7.30576 8.55656 7.4259 8.27312 7.66618 8.03969C7.90646 7.80627 8.19822 7.68956 8.54148 7.68956C8.88473 7.68956 9.1765 7.80627 9.41677 8.03969C9.65705 8.27312 9.77719 8.55656 9.77719 8.89003C9.77719 9.2235 9.65705 9.50694 9.41677 9.74037C9.1765 9.97379 8.88473 10.0905 8.54148 10.0905ZM8.54273 11.7801C7.55142 11.7801 6.64797 11.518 5.8324 10.9939C5.01683 10.4697 4.40603 9.76845 4 8.89003C4.40603 8.01161 5.01641 7.31033 5.83114 6.7862C6.64588 6.26207 7.5489 6 8.54022 6C9.53153 6 10.435 6.26207 11.2505 6.7862C12.0661 7.31033 12.6769 8.01161 13.083 8.89003C12.6769 9.76845 12.0665 10.4697 11.2518 10.9939C10.4371 11.518 9.53405 11.7801 8.54273 11.7801ZM8.54148 11.3354C9.40342 11.3354 10.1948 11.115 10.9156 10.6741C11.6365 10.2332 12.1876 9.63847 12.569 8.89003C12.1876 8.14159 11.6365 7.54691 10.9156 7.10599C10.1948 6.66508 9.40342 6.44462 8.54148 6.44462C7.67953 6.44462 6.88814 6.66508 6.1673 7.10599C5.44647 7.54691 4.89536 8.14159 4.51397 8.89003C4.89536 9.63847 5.44647 10.2332 6.1673 10.6741C6.88814 11.115 7.67953 11.3354 8.54148 11.3354Z" fill="#909090"/>
</g>
<mask id="path-4-inside-1_88_3848" fill="white">
<path d="M0 9C0 4.02944 4.02944 0 9 0C13.9706 0 18 4.02944 18 9C18 13.9706 13.9706 18 9 18C4.02944 18 0 13.9706 0 9Z"/>
</mask>
<path d="M9 17C4.58172 17 1 13.4183 1 9H-1C-1 14.5228 3.47715 19 9 19V17ZM17 9C17 13.4183 13.4183 17 9 17V19C14.5228 19 19 14.5228 19 9H17ZM9 1C13.4183 1 17 4.58172 17 9H19C19 3.47715 14.5228 -1 9 -1V1ZM9 -1C3.47715 -1 -1 3.47715 -1 9H1C1 4.58172 4.58172 1 9 1V-1Z" fill="#657285" fill-opacity="0.25" mask="url(#path-4-inside-1_88_3848)"/>
</svg>
