<svg width="44" height="44" viewBox="0 0 44 44" fill="none" xmlns="http://www.w3.org/2000/svg">
<path d="M22.0484 44H21.9516C9.84761 44 0 34.1524 0 22.0484V21.9516C0 9.84763 9.84761 0 21.9516 0H22.0484C34.1524 0 44 9.84763 44 21.9516V22.0484C44 34.1524 34.1524 44 22.0484 44ZM24.5 1C13.2167 1 0.5 10.7166 0.5 22C0.5 33.2834 10.7167 43 22 43C33.2833 43 43 33.2834 43 22V21.9516C43 10.6683 35.7833 1 24.5 1Z" fill="#4F5D72" fill-opacity="0.88"/>
<path d="M24.9602 17.0671V21.6975H30.6883L29.7813 27.9349H24.9602V42.3057C23.9936 42.4397 23.0038 42.5 22 42.5C20.8413 42.5 19.7043 42.4174 18.5962 42.2387V27.9349H13.3135V21.6975H18.5962V16.032C18.5962 12.5171 21.4454 9.6665 24.9617 9.6665V9.66949C24.9721 9.66949 24.9811 9.6665 24.9915 9.6665H30.6898V15.0609H26.9664C25.8598 15.0609 24.9617 15.959 24.9617 17.0656L24.9602 17.0671Z" fill="#4F5D72"/>
</svg>
