<svg width="43" height="98" viewBox="0 0 43 98" fill="none" xmlns="http://www.w3.org/2000/svg">
<path d="M33.7386 6.60844L31.8182 6.60844V1.30162L33.7386 1.30162V6.60844ZM33.7386 15.5484H31.8182V10.2416H33.7386V15.5484ZM33.7386 24.4884H31.8182L31.8182 19.1816H33.7386V24.4884ZM33.7386 33.4284H31.8182V28.1216H33.7386V33.4284ZM33.7386 42.3684H31.8182V37.0616H33.7386V42.3684ZM33.7386 51.3084H31.8182V46.0016H33.7386V51.3084ZM33.7386 60.2484H31.8182V54.9416H33.7386V60.2484ZM33.7386 69.1884H31.8182V63.8816H33.7386V69.1884ZM33.7386 78.1284H31.8182L31.8182 72.8216H33.7386L33.7386 78.1284ZM33.7386 87.0684H31.8182V81.7616H33.7386V87.0684ZM33.7386 96.0084H31.8182V90.7016H33.7386V96.0084Z" fill="black"/>
<path d="M25.7386 6.63859L23.8182 6.63859V1.33177L25.7386 1.33177V6.63859ZM25.7386 15.5786H23.8182V10.2718H25.7386V15.5786ZM25.7386 24.5186H23.8182L23.8182 19.2118H25.7386L25.7386 24.5186ZM25.7386 33.4586H23.8182V28.1518H25.7386V33.4586ZM25.7386 42.3986H23.8182V37.0918H25.7386V42.3986ZM25.7386 51.3386H23.8182V46.0318H25.7386V51.3386ZM25.7386 60.2786H23.8182V54.9718H25.7386V60.2786ZM25.7386 69.2186H23.8182V63.9118H25.7386V69.2186ZM25.7386 78.1586H23.8182L23.8182 72.8518H25.7386L25.7386 78.1586ZM25.7386 87.0986H23.8182V81.7918H25.7386V87.0986ZM25.7386 96.0386H23.8182V90.7318H25.7386V96.0386Z" fill="black"/>
<path d="M17.7386 6.66886L15.8182 6.66886V1.36204L17.7386 1.36204V6.66886ZM17.7386 15.6089H15.8182V10.302H17.7386V15.6089ZM17.7386 24.5489H15.8182L15.8182 19.242H17.7386L17.7386 24.5489ZM17.7386 33.4889H15.8182V28.182H17.7386V33.4889ZM17.7386 42.4289H15.8182V37.122H17.7386V42.4289ZM17.7386 51.3689H15.8182L15.8182 46.062H17.7386V51.3689ZM17.7386 60.3089H15.8182V55.002H17.7386V60.3089ZM17.7386 69.2489H15.8182V63.942H17.7386V69.2489ZM17.7386 78.1889H15.8182L15.8182 72.8821H17.7386L17.7386 78.1889ZM17.7386 87.1289H15.8182V81.822H17.7386V87.1289ZM17.7386 96.0689H15.8182V90.762H17.7386V96.0689Z" fill="black"/>
<path d="M9.73864 6.69901L7.81818 6.69901V1.3922L9.73864 1.3922V6.69901ZM9.73864 15.639H7.81818V10.3322H9.73864V15.639ZM9.73864 24.579H7.81818L7.81818 19.2722H9.73864L9.73864 24.579ZM9.73864 33.519H7.81818V28.2122H9.73864V33.519ZM9.73864 42.459H7.81818V37.1522H9.73864V42.459ZM9.73864 51.399H7.81818L7.81818 46.0922H9.73864L9.73864 51.399ZM9.73864 60.339H7.81818V55.0322H9.73864V60.339ZM9.73864 69.279H7.81818V63.9722H9.73864V69.279ZM9.73864 78.219H7.81818L7.81818 72.9122H9.73864L9.73864 78.219ZM9.73864 87.159H7.81818V81.8522H9.73864V87.159ZM9.73864 96.099H7.81818V90.7922H9.73864V96.099Z" fill="black"/>
</svg>
