<svg width="44" height="44" viewBox="0 0 44 44" fill="none" xmlns="http://www.w3.org/2000/svg">
<path d="M22.0484 44H21.9516C9.84762 44 0 34.1524 0 22.0484V21.9516C0 9.8476 9.84762 0 21.9516 0H22.0484C34.1524 0 44 9.8476 44 21.9516V22.0484C44 34.1524 34.1524 44 22.0484 44ZM21.9516 1.48935C10.6682 1.48935 0.00329759 10.2848 0.00329759 21.5682L0 22.0484C0 33.3318 10.6682 42.5106 21.9516 42.5106H22.0484C33.3317 42.5106 42.5106 33.3318 42.5106 22.0484V21.9516C42.5106 10.6682 33.3317 1.48935 22.0484 1.48935H21.9516Z" fill="#4F5D72"/>
<path d="M28.5774 9.39355H15.4234C11.7894 9.39355 8.83301 12.3499 8.83301 15.984V28.0179C8.83301 31.6519 11.7894 34.6083 15.4234 34.6083H28.5774C32.2114 34.6083 35.1678 31.6519 35.1678 28.0179V15.984C35.1678 12.3499 32.2114 9.39355 28.5774 9.39355ZM11.1579 15.984C11.1579 13.6323 13.0717 11.7184 15.4234 11.7184H28.5774C30.9291 11.7184 32.8429 13.6323 32.8429 15.984V28.0179C32.8429 30.3696 30.9291 32.2834 28.5774 32.2834H15.4234C13.0717 32.2834 11.1579 30.3696 11.1579 28.0179V15.984Z" fill="#4F5D72"/>
<path d="M22.0013 28.1295C25.3806 28.1295 28.1315 25.3801 28.1315 21.9993C28.1315 18.6185 25.3821 15.8691 22.0013 15.8691C18.6204 15.8691 15.8711 18.6185 15.8711 21.9993C15.8711 25.3801 18.6204 28.1295 22.0013 28.1295ZM22.0013 18.1955C24.0998 18.1955 25.8066 19.9023 25.8066 22.0008C25.8066 24.0993 24.0998 25.8061 22.0013 25.8061C19.9028 25.8061 18.196 24.0993 18.196 22.0008C18.196 19.9023 19.9028 18.1955 22.0013 18.1955Z" fill="#4F5D72"/>
<path d="M28.6986 16.8595C29.6086 16.8595 30.3503 16.1193 30.3503 15.2079C30.3503 14.2964 29.61 13.5562 28.6986 13.5562C27.7871 13.5562 27.0469 14.2964 27.0469 15.2079C27.0469 16.1193 27.7871 16.8595 28.6986 16.8595Z" fill="#4F5D72"/>
</svg>
