<svg width="19" height="19" viewBox="0 0 19 19" fill="none" xmlns="http://www.w3.org/2000/svg">
<rect x="0.5" y="0.5" width="18" height="18" rx="9" fill="white" fill-opacity="0.1"/>
<mask id="mask0_64_1747" style="mask-type:alpha" maskUnits="userSpaceOnUse" x="5" y="5" width="9" height="9">
<rect x="5" y="5" width="9" height="9" fill="#D9D9D9"/>
</mask>
<g mask="url(#mask0_64_1747)">
<mask id="mask1_64_1747" style="mask-type:alpha" maskUnits="userSpaceOnUse" x="3" y="3" width="13" height="12">
<rect x="3.5" y="3" width="12" height="12" fill="#D9D9D9"/>
</mask>
<g mask="url(#mask1_64_1747)">
<path d="M6.30775 13C6.07758 13 5.88542 12.9229 5.73125 12.7688C5.57708 12.6146 5.5 12.4224 5.5 12.1923V5.80775C5.5 5.57758 5.57708 5.38542 5.73125 5.23125C5.88542 5.07708 6.07758 5 6.30775 5H11.2885L13.5 7.2115V12.1923C13.5 12.4224 13.4229 12.6146 13.2688 12.7688C13.1146 12.9229 12.9224 13 12.6923 13H6.30775ZM6.30775 12.5H12.6923C12.782 12.5 12.8558 12.4712 12.9135 12.4135C12.9712 12.3558 13 12.282 13 12.1923V7.5H11V5.5H6.30775C6.218 5.5 6.14425 5.52883 6.0865 5.5865C6.02883 5.64425 6 5.718 6 5.80775V12.1923C6 12.282 6.02883 12.3558 6.0865 12.4135C6.14425 12.4712 6.218 12.5 6.30775 12.5ZM7.25 11H11.75V10.5H7.25V11ZM7.25 7.5H9.5V7H7.25V7.5ZM7.25 9.25H11.75V8.75H7.25V9.25Z" fill="#4D5869"/>
</g>
</g>
<rect x="0.75" y="0.75" width="17.5" height="17.5" rx="8.75" stroke="#4D5869" stroke-width="0.5"/>
</svg>
