<svg width="44" height="44" viewBox="0 0 44 44" fill="none" xmlns="http://www.w3.org/2000/svg">
<path d="M22.0484 44H21.9516C9.84762 44 0 34.1524 0 22.0484V21.9516C0 9.8476 9.84762 0 21.9516 0H22.0484C34.1524 0 44 9.8476 44 21.9516V22.0484C44 34.1524 34.1524 44 22.0484 44ZM21.9516 1.48935C10.6683 1.48935 1.48935 10.6682 1.48935 21.9516V22.0484C1.48935 33.3318 10.6683 42.5106 21.9516 42.5106H22.0484C33.3317 42.5106 42.5106 33.3318 42.5106 22.0484L44 21.9516C44 10.6682 33.3317 1.48935 22.0484 1.48935H21.9516Z" fill="#4F5D72"/>
<path d="M9.36673 10.3691L19.1697 23.4755L9.30566 34.1318H11.5263L20.1631 24.8025L27.1407 34.1318H34.6962L24.3422 20.2883L33.5241 10.3691H31.3034L23.3503 18.9613L16.9237 10.3691H9.36821H9.36673ZM12.6314 12.0045H16.1016L31.4285 32.4965H27.9583L12.6314 12.0045Z" fill="#4F5D72"/>
</svg>
