<svg width="14" height="14" viewBox="0 0 14 14" fill="none" xmlns="http://www.w3.org/2000/svg">
<path d="M7 0C9.17481 0 10.9375 1.76269 10.9375 3.9375C10.9375 5.36593 10.1745 6.6128 9.03613 7.30273C11.9088 8.17511 14 10.8426 14 14H0C0 10.8426 2.09124 8.17511 4.96387 7.30273C3.8255 6.6128 3.0625 5.36593 3.0625 3.9375C3.0625 1.76269 4.82519 0 7 0ZM8.43555 7.60156C7.99019 7.77611 7.50704 7.875 7 7.875C6.49296 7.875 6.00981 7.77611 5.56445 7.60156C2.77199 8.22682 0.65323 10.6291 0.458984 13.5625H13.541C13.3468 10.6291 11.228 8.22682 8.43555 7.60156ZM7 0.4375C6.07174 0.4375 5.18177 0.806513 4.52539 1.46289C3.86901 2.11927 3.5 3.00924 3.5 3.9375C3.49995 4.7366 3.77378 5.51175 4.27539 6.13379C4.77693 6.75563 5.47609 7.18713 6.25684 7.35645L6.27246 7.36035C6.37621 7.38183 6.48165 7.39909 6.58691 7.41113C6.60249 7.41289 6.61723 7.41623 6.63281 7.41797C6.8771 7.44438 7.12388 7.44438 7.36816 7.41797C7.38374 7.41622 7.39849 7.41289 7.41406 7.41113C7.51919 7.3991 7.62392 7.38179 7.72754 7.36035L7.74414 7.35645C7.97138 7.30683 8.19326 7.23508 8.40625 7.1416C9.02871 6.86864 9.55785 6.41954 9.92969 5.85059C10.3014 5.28169 10.4999 4.61709 10.5 3.9375C10.5 3.00924 10.131 2.11927 9.47461 1.46289C8.81823 0.806513 7.92826 0.4375 7 0.4375Z" fill="#2E2E2E"/>
<path d="M7 0C9.17481 0 10.9375 1.76269 10.9375 3.9375C10.9375 5.36593 10.1745 6.6128 9.03613 7.30273C11.9088 8.17511 14 10.8426 14 14H0C0 10.8426 2.09124 8.17511 4.96387 7.30273C3.8255 6.6128 3.0625 5.36593 3.0625 3.9375C3.0625 1.76269 4.82519 0 7 0ZM8.43555 7.60156C7.99019 7.77611 7.50704 7.875 7 7.875C6.49296 7.875 6.00981 7.77611 5.56445 7.60156C2.77199 8.22682 0.65323 10.6291 0.458984 13.5625H13.541C13.3468 10.6291 11.228 8.22682 8.43555 7.60156ZM7 0.4375C6.07174 0.4375 5.18177 0.806513 4.52539 1.46289C3.86901 2.11927 3.5 3.00924 3.5 3.9375C3.49995 4.7366 3.77378 5.51175 4.27539 6.13379C4.77693 6.75563 5.47609 7.18713 6.25684 7.35645L6.27246 7.36035C6.37621 7.38183 6.48165 7.39909 6.58691 7.41113C6.60249 7.41289 6.61723 7.41623 6.63281 7.41797C6.8771 7.44438 7.12388 7.44438 7.36816 7.41797C7.38374 7.41622 7.39849 7.41289 7.41406 7.41113C7.51919 7.3991 7.62392 7.38179 7.72754 7.36035L7.74414 7.35645C7.97138 7.30683 8.19326 7.23508 8.40625 7.1416C9.02871 6.86864 9.55785 6.41954 9.92969 5.85059C10.3014 5.28169 10.4999 4.61709 10.5 3.9375C10.5 3.00924 10.131 2.11927 9.47461 1.46289C8.81823 0.806513 7.92826 0.4375 7 0.4375Z" stroke="black"/>
</svg>
